# xmcd CD database file
#
# Track frame offsets:
#	150
#	15417
#	31090
#	46760
#	60230
#	75707
#	89322
#	104052
#	119829
#	134630
#	148867
#	165490
#
# Disc length: 2380 seconds
#
# Revision: 0
# Processed by: cddbd v1.4PL0 Copyright (c) Steve Scherf et al.
# Submitted via: Feurio! 1.66 - http://www.feurio.com
#
DISCID=9c094a0c
DTITLE=Die Charly´s - Ich Glaub An Dich
DYEAR=1900
DGENRE=
TTITLE0=Ich Glaub An Dich
TTITLE1=Hab Ich Das Alles Nur Geträumt
TTITLE2=Ich Lieb Dich Noch Immer
TTITLE3=Flimmerndes Herz
TTITLE4=Gib Doch Zu
TTITLE5=Du Bist Die Frau Von Der Ich Träume
TTITLE6=Wenn Eine Liebe Geht
TTITLE7=Für Uns Zwei
TTITLE8=Du Bist In Jedem Fall
TTITLE9=Seit Wier Zwei Uns Trafen
TTITLE10=Ich Will Nur Bei Dir Sein
TTITLE11=Du Ich Hab Von Dir Geträumt
EXTD=
EXTT0=
EXTT1=
EXTT2=
EXTT3=
EXTT4=
EXTT5=
EXTT6=
EXTT7=
EXTT8=
EXTT9=
EXTT10=
EXTT11=
PLAYORDER=
